<svg xmlns="http://www.w3.org/2000/svg" width="1200" height="1010" viewBox="0 0 1200 1010" font-family="Consolas, Menlo, monospace">
  <defs>
    <marker id="arr" markerWidth="8" markerHeight="8" refX="6" refY="3" orient="auto">
      <path d="M0,0 L6,3 L0,6 z" fill="#ff4d4d"/>
    </marker>
  </defs>

  <rect width="1200" height="1010" fill="#0b1a0e"/>

  <!-- Title -->
  <text x="600" y="38" fill="#30ff50" font-size="22" text-anchor="middle" letter-spacing="3">PIPBOY 3000 v2 — WIRING (ESP32-S3)</text>
  <text x="600" y="60" fill="#186828" font-size="12" text-anchor="middle">matches code/PipBoy3000-S3 · original project: thingiverse.com/thing:6654866 (jeje95)</text>

  <!-- Legend -->
  <g font-size="12">
    <line x1="70"  y1="88" x2="100" y2="88" stroke="#ff4d4d" stroke-width="3"/><text x="106" y="92" fill="#30ff50">5V</text>
    <line x1="150" y1="88" x2="180" y2="88" stroke="#e6b450" stroke-width="3"/><text x="186" y="92" fill="#30ff50">3.3V</text>
    <line x1="250" y1="88" x2="280" y2="88" stroke="#8b949e" stroke-width="3"/><text x="286" y="92" fill="#30ff50">GND</text>
    <line x1="350" y1="88" x2="380" y2="88" stroke="#5fbf77" stroke-width="3"/><text x="386" y="92" fill="#30ff50">digital in</text>
    <line x1="480" y1="88" x2="510" y2="88" stroke="#ffd75f" stroke-width="3"/><text x="516" y="92" fill="#30ff50">SPI</text>
    <line x1="570" y1="88" x2="600" y2="88" stroke="#56ccf2" stroke-width="3"/><text x="606" y="92" fill="#30ff50">I2C</text>
    <line x1="660" y1="88" x2="690" y2="88" stroke="#b48cf2" stroke-width="3"/><text x="696" y="92" fill="#30ff50">UART</text>
    <line x1="770" y1="88" x2="800" y2="88" stroke="#ff8c42" stroke-width="3"/><text x="806" y="92" fill="#30ff50">PWM</text>
  </g>

  <!-- ============ ESP32-S3 (center) ============ -->
  <rect x="480" y="150" width="240" height="600" fill="#0a2410" stroke="#30ff50" stroke-width="2"/>
  <text x="600" y="178" fill="#30ff50" font-size="16" text-anchor="middle" font-weight="bold">ESP32-S3 DevKitC</text>
  <text x="600" y="196" fill="#186828" font-size="12" text-anchor="middle">N16R8 · 16MB flash / 8MB PSRAM</text>

  <!-- left pin labels -->
  <g fill="#30ff50" font-size="13">
    <text x="492" y="229">GPIO4</text>
    <text x="492" y="259">GPIO5</text>
    <text x="492" y="289">GPIO6</text>
    <text x="492" y="319">GPIO7</text>
    <text x="492" y="349">GPIO15</text>
    <text x="492" y="474">GPIO8 SDA</text>
    <text x="492" y="504">GPIO9 SCL</text>
    <text x="492" y="719">GPIO21</text>
  </g>
  <!-- right pin labels -->
  <g fill="#30ff50" font-size="13" text-anchor="end">
    <text x="708" y="229">GPIO11</text>
    <text x="708" y="259">GPIO12</text>
    <text x="708" y="289">GPIO10</text>
    <text x="708" y="319">GPIO13</text>
    <text x="708" y="349">GPIO14</text>
    <text x="708" y="559">GPIO17 TX1</text>
    <text x="708" y="589">GPIO16 RX1</text>
  </g>
  <!-- bottom power pin labels -->
  <g fill="#30ff50" font-size="13" text-anchor="middle">
    <text x="520" y="738">5V/VIN</text>
    <text x="600" y="738">3V3</text>
    <text x="680" y="738">GND</text>
  </g>

  <!-- ============ Rotary switch (top-left) ============ -->
  <rect x="60" y="150" width="240" height="240" fill="#0a2410" stroke="#30ff50" stroke-width="2"/>
  <text x="180" y="178" fill="#30ff50" font-size="15" text-anchor="middle" font-weight="bold">5-POS ROTARY</text>
  <g fill="#30ff50" font-size="13">
    <text x="76" y="229">pos 1  STAT</text>
    <text x="76" y="259">pos 2  INV</text>
    <text x="76" y="289">pos 3  DATA</text>
    <text x="76" y="319">pos 4  TIME</text>
    <text x="76" y="349">pos 5  RADIO</text>
    <text x="76" y="376" fill="#8b949e">common ── GND</text>
  </g>
  <!-- rotary -> ESP lines -->
  <g stroke="#5fbf77" stroke-width="2">
    <line x1="300" y1="225" x2="480" y2="225"/>
    <line x1="300" y1="255" x2="480" y2="255"/>
    <line x1="300" y1="285" x2="480" y2="285"/>
    <line x1="300" y1="315" x2="480" y2="315"/>
    <line x1="300" y1="345" x2="480" y2="345"/>
  </g>
  <text x="390" y="215" fill="#186828" font-size="11" text-anchor="middle">INPUT_PULLUP x5</text>

  <!-- ============ I2C sensors (mid-left) ============ -->
  <rect x="60" y="420" width="240" height="215" fill="#0a2410" stroke="#30ff50" stroke-width="2"/>
  <text x="180" y="448" fill="#30ff50" font-size="15" text-anchor="middle" font-weight="bold">I2C BUS (3.3V)</text>
  <g fill="#30ff50" font-size="13">
    <text x="76" y="474">SDA</text>
    <text x="76" y="504">SCL</text>
    <text x="76" y="536">SHT31    0x44 temp/hum</text>
    <text x="76" y="560">DS3231   0x68 RTC+CR2032</text>
    <text x="76" y="584" fill="#e6b450">MAX17048 0x36 gauge (later)</text>
    <text x="76" y="612" fill="#e6b450">VCC ── 3V3</text>
    <text x="190" y="612" fill="#8b949e">GND ── GND</text>
  </g>
  <g stroke="#56ccf2" stroke-width="2">
    <line x1="300" y1="470" x2="480" y2="470"/>
    <line x1="300" y1="500" x2="480" y2="500"/>
  </g>
  <text x="390" y="462" fill="#186828" font-size="11" text-anchor="middle">module pullups suffice</text>

  <!-- ============ MOSFET / LEDs (bottom-left) ============ -->
  <rect x="60" y="660" width="240" height="200" fill="#0a2410" stroke="#30ff50" stroke-width="2"/>
  <text x="180" y="688" fill="#30ff50" font-size="15" text-anchor="middle" font-weight="bold">LED CHANNEL</text>
  <g fill="#30ff50" font-size="13">
    <text x="76" y="719">G  gate</text>
    <text x="76" y="746">N-MOSFET AO3400/IRLZ44N</text>
    <text x="76" y="772">D ── all LED cathodes</text>
    <text x="76" y="796" fill="#8b949e">S ── GND</text>
    <text x="76" y="824" fill="#ff4d4d">LED anodes ── 5V via</text>
    <text x="76" y="844" fill="#ff4d4d">existing 100R resistors</text>
  </g>
  <line x1="300" y1="715" x2="480" y2="715" stroke="#ff8c42" stroke-width="2"/>
  <text x="390" y="707" fill="#186828" font-size="11" text-anchor="middle">100R series · 100k to GND</text>

  <!-- ============ TFT (top-right) ============ -->
  <rect x="900" y="150" width="240" height="290" fill="#0a2410" stroke="#30ff50" stroke-width="2"/>
  <text x="1020" y="178" fill="#30ff50" font-size="15" text-anchor="middle" font-weight="bold">4" TFT 480x320</text>
  <text x="1020" y="196" fill="#186828" font-size="12" text-anchor="middle">ILI9486 · SPI · write-only</text>
  <g fill="#30ff50" font-size="13">
    <text x="916" y="229">MOSI (SDI)</text>
    <text x="916" y="259">SCK</text>
    <text x="916" y="289">CS</text>
    <text x="916" y="319">DC (RS)</text>
    <text x="916" y="349">RST</text>
    <text x="916" y="378" fill="#ff4d4d">VCC ── 5V rail *</text>
    <text x="916" y="402" fill="#e6b450">LED(BL) ── 3.3V *</text>
    <text x="916" y="426" fill="#8b949e">GND ── GND · MISO n/c</text>
  </g>
  <g stroke="#ffd75f" stroke-width="2">
    <line x1="720" y1="225" x2="900" y2="225"/>
    <line x1="720" y1="255" x2="900" y2="255"/>
    <line x1="720" y1="285" x2="900" y2="285"/>
    <line x1="720" y1="315" x2="900" y2="315"/>
    <line x1="720" y1="345" x2="900" y2="345"/>
  </g>
  <text x="810" y="215" fill="#186828" font-size="11" text-anchor="middle">SPI 20 MHz</text>

  <!-- ============ DFPlayer (bottom-right) ============ -->
  <rect x="900" y="500" width="240" height="260" fill="#0a2410" stroke="#30ff50" stroke-width="2"/>
  <text x="1020" y="528" fill="#30ff50" font-size="15" text-anchor="middle" font-weight="bold">DFPLAYER MINI</text>
  <g fill="#30ff50" font-size="13">
    <text x="916" y="559">RX</text>
    <text x="916" y="589">TX</text>
    <text x="916" y="618" fill="#ff4d4d">VCC ── 5V + 100-470uF</text>
    <text x="916" y="642" fill="#8b949e">GND ── GND</text>
    <text x="916" y="670">SPK1/SPK2 ── speaker 8R</text>
    <text x="916" y="698" fill="#186828">SD (FAT32): /MP3/</text>
    <text x="916" y="718" fill="#186828">0001-0004 UI · 0005-0009</text>
    <text x="916" y="738" fill="#186828">radio stations</text>
  </g>
  <!-- UART lines, 1k resistor on TX->RX -->
  <line x1="720" y1="555" x2="785" y2="555" stroke="#b48cf2" stroke-width="2"/>
  <rect x="785" y="549" width="44" height="12" fill="#0b1a0e" stroke="#b48cf2" stroke-width="1.5"/>
  <text x="807" y="545" fill="#b48cf2" font-size="11" text-anchor="middle">1k</text>
  <line x1="829" y1="555" x2="900" y2="555" stroke="#b48cf2" stroke-width="2"/>
  <line x1="720" y1="585" x2="900" y2="585" stroke="#b48cf2" stroke-width="2"/>
  <text x="810" y="600" fill="#186828" font-size="11" text-anchor="middle">9600 8N1</text>

  <!-- ============ ESP power stubs down to power tree ============ -->
  <line x1="520" y1="742" x2="520" y2="815" stroke="#ff4d4d" stroke-width="2"/>
  <line x1="600" y1="742" x2="600" y2="785" stroke="#e6b450" stroke-width="2"/>
  <line x1="680" y1="742" x2="680" y2="815" stroke="#8b949e" stroke-width="2"/>
  <text x="606" y="778" fill="#e6b450" font-size="10">3V3 &#8594; sensors</text>

  <!-- ============ Power tree (bottom) ============ -->
  <rect x="320" y="815" width="820" height="170" fill="#0a2410" stroke="#30ff50" stroke-width="2"/>
  <text x="730" y="841" fill="#30ff50" font-size="15" text-anchor="middle" font-weight="bold">POWER — all grounds common</text>

  <rect x="340" y="865" width="120" height="56" fill="#0b1a0e" stroke="#30ff50"/>
  <text x="400" y="888" fill="#30ff50" font-size="12" text-anchor="middle">LiPo / 18650</text>
  <text x="400" y="906" fill="#56ccf2" font-size="10" text-anchor="middle">CELL &#8594; MAX17048</text>

  <rect x="490" y="865" width="120" height="56" fill="#0b1a0e" stroke="#30ff50"/>
  <text x="550" y="888" fill="#30ff50" font-size="12" text-anchor="middle">TP4056</text>
  <text x="550" y="906" fill="#186828" font-size="10" text-anchor="middle">USB-C charging</text>

  <rect x="640" y="865" width="100" height="56" fill="#0b1a0e" stroke="#30ff50"/>
  <text x="690" y="888" fill="#30ff50" font-size="12" text-anchor="middle">POWER</text>
  <text x="690" y="906" fill="#30ff50" font-size="12" text-anchor="middle">SWITCH</text>

  <rect x="770" y="865" width="110" height="56" fill="#0b1a0e" stroke="#30ff50"/>
  <text x="825" y="890" fill="#30ff50" font-size="12" text-anchor="middle">TPS61090</text>
  <text x="825" y="906" fill="#186828" font-size="10" text-anchor="middle">5V boost</text>

  <g stroke="#ff4d4d" stroke-width="2.5">
    <line x1="460" y1="893" x2="483" y2="893" marker-end="url(#arr)"/>
    <line x1="610" y1="893" x2="633" y2="893" marker-end="url(#arr)"/>
    <line x1="740" y1="893" x2="763" y2="893" marker-end="url(#arr)"/>
    <line x1="880" y1="893" x2="903" y2="893" marker-end="url(#arr)"/>
  </g>

  <text x="912" y="875" fill="#ff4d4d" font-size="12">5V RAIL:</text>
  <g fill="#30ff50" font-size="11">
    <text x="912" y="895">ESP32 5V/VIN &#183; DFPlayer VCC</text>
    <text x="912" y="913">TFT VCC * &#183; LED anodes</text>
  </g>
  <text x="340" y="948" fill="#186828" font-size="12">Wago blocks from the BOM = 5V / GND distribution points.</text>
  <text x="340" y="966" fill="#186828" font-size="12">* TFT power depends on the module's regulator jumper — see WIRING.md.</text>

  <text x="600" y="1000" fill="#186828" font-size="11" text-anchor="middle">PipBoy 3000 ESP32 Fork · 2026-07-08 · text version: WIRING.md</text>
</svg>
